# xmcd
#
# Track frame offsets:
#   150
#   32076
#   37180
#   59080
#   75322
#   90156
#   109321
#   126255
#   139705
#   155254
#   170856
#   189359
#   206967
#   213864
#   227502
#   239920
#   255369
#   267955
#   286341
#   307197
#
# Disc length: 4315 seconds
#
# Revision: 0
# Processed by: cddbd v1.5.2PL0 Copyright (c) Steve Scherf et al.
# Submitted via: GXTranscoder 2.0.1939
#
DISCID=2510d914
DTITLE=remix - remix
DYEAR=1900
DGENRE=Hip Hop
TTITLE0=RnB Flow 2006
TTITLE1=dj breakfire- keep sweatin
TTITLE2=number one (superblend)
TTITLE3=lets make love
TTITLE4=u like that
TTITLE5=show stoper
TTITLE6=hell yeah
TTITLE7=shawty
TTITLE8=wild side
TTITLE9=lie about us
TTITLE10=hip hops
TTITLE11=12
TTITLE12=13
TTITLE13=14
TTITLE14=15
TTITLE15=16
TTITLE16=17
TTITLE17=18
TTITLE18=19
TTITLE19=20
EXTD=
EXTT0=
EXTT1=
EXTT2=
EXTT3=
EXTT4=
EXTT5=
EXTT6=
EXTT7=
EXTT8=
EXTT9=
EXTT10=
EXTT11=
EXTT12=
EXTT13=
EXTT14=
EXTT15=
EXTT16=
EXTT17=
EXTT18=
EXTT19=
PLAYORDER=
